<?xml version="1.0" encoding="UTF-8"?>
<svg id="Layer_1" xmlns="http://www.w3.org/2000/svg" viewBox="0 0 322.93 78.86">
  <defs>
    <style>
      .cls-1, .cls-2 {
        fill: #231f20;
      }

      .cls-3 {
        fill: #fff;
        font-family: Poppins-SemiBold, Poppins;
        font-size: 10.59px;
        font-weight: 600;
      }

      .cls-2 {
        fill-rule: evenodd;
      }
    </style>
  </defs>
  <rect class="cls-1" x="277.5" y="3.87" width="45.42" height="13.27"/>
  <path class="cls-2" d="M217.14,10.13c-.85-4.91-2.86-8.09-6.02-9.58-.98-.37-1.94-.56-2.84-.56-1.33,0-2.79.5-4.4,1.54-2.15,1.38-3.95,4.03-5.44,7.96l-.03.24c0,.53.27.8.82.8.42,0,.69-.19.8-.56.53-1.38,1.22-2.76,2.1-4.08,1.78-2.84,3.85-4.27,6.15-4.27.37,0,.77.05,1.17.13,4.77,1.22,7.19,7.9,7.19,20.05,0,5.57-.72,11.75-2.15,18.54-.85,4.4-1.94,8.78-3.26,13.1-2.44,7.85-6.05,14.19-10.82,19.02-2.23,2.23-4.67,3.74-7.27,4.48-.64.19-1.27.27-1.91.27-1.91,0-3.79-.8-5.65-2.41-2.89-2.71-4.32-6.58-4.32-11.64,0-6.07.9-12.6,2.65-19.52v-.16c0-.56-.27-.82-.82-.82-.32,0-.56.13-.72.4-2.33,3.98-5.17,7.56-8.49,10.74-1.8,1.8-3.53,2.92-5.17,3.37-.27.08-.53.13-.82.13-.53,0-1.03-.16-1.49-.45-1.22-.93-1.83-4.01-1.83-9.23,0-4.59.85-9.89,2.57-15.86h3.69l2.39-11.46h-2.23c1.46-3.87,3.08-7.72,4.83-11.51l.05-.29c0-.53-.29-.82-.85-.88h-.11c-.27,0-.48.16-.64.48-1.94,4.19-3.61,8.25-5.09,12.15h1.7l-3.85,11.49h-1.64l3.66-11.43h-48.09l-5.36,25.78h-.11l-3.42-25.78h-19.68l-8.81,42.6h13.29l5.38-25.94h.11l3.4,25.94h19.68l6.45-31.14h12.33l-6.47,31.14h16.42l6.45-31.14h4.85c-.66,2.55-1.25,4.99-1.7,7.4-.58,3.26-.9,6.34-.9,9.26,0,2.2.24,4.4.69,6.58.19.98.61,1.86,1.22,2.63.8.9,1.78,1.35,2.97,1.35,1.8,0,3.61-.77,5.41-2.28,3.66-3,6.34-5.86,8.01-8.51-.69,3-1.19,6.87-1.51,11.59-.05.88-.08,1.72-.08,2.57,0,1.62.13,3.45.4,5.52.29,2.04,1.19,4.11,2.65,6.23,1.35,1.83,3.02,3.16,5.01,4.01,1.19.5,2.41.77,3.69.77.88,0,1.78-.11,2.71-.32,3.93-1.25,7.56-4.14,10.93-8.67,2.84-3.87,5.09-8.09,6.71-12.65,1.59-4.56,2.89-9.15,3.87-13.82,1.25-5.44,2.1-10.93,2.52-16.53.13-1.64.19-3.26.19-4.91,0-3.95-.37-7.9-1.11-11.83ZM322.69,46.42c-.13-.19-.32-.29-.53-.29s-1.11.19-2.73.56c-3.37.8-5.41,1.19-6.15,1.19-.82,0-1.43-.27-1.86-.8-.61-.9-1.46-1.35-2.52-1.35-1.22,0-2.68.72-4.43,2.12l-1.8,1.27c-.53.34-.88.58-1.03.74s-.27.24-.32.24-.08-.05-.08-.16v-.34c0-.48.08-.93.19-1.38.21-.08.42-.16.66-.27.37-.16.56-.4.58-.72,0-.4-.13-.66-.4-.77t.05-.05c.11-.16.16-.32.16-.45s-.05-.24-.13-.34c-.19-.27-.42-.4-.74-.4-.24,0-.45.11-.64.34-.32.45-.58.9-.8,1.38-1.3.37-2.63.58-3.93.58-.69,0-1.57-.13-2.6-.37-1.03-.27-2.07-.4-3.13-.4-.53-.72-1.49-1.11-2.86-1.19-1.06,0-2.07.29-3,.88-.82.16-1.54.24-2.15.29-1.19,0-3.34.19-6.45.58-1.78.24-3.4.69-4.88,1.33-.37-1.14-1.11-2.31-2.23-3.47l-.42-.5c2.65-1.33,4.06-2.89,4.19-4.7-.11-1.54-.8-2.31-2.1-2.31s-2.63.45-3.9,1.35c-1.25.88-1.88,1.94-1.96,3.16.05.77.42,1.46,1.17,2.12-1.38.64-2.92,1.27-4.56,1.91-.29.16-.45.37-.5.64-2.31,1.09-4.69,1.94-7.19,2.55-1.59.42-3.05.64-4.38.64-.82,0-1.57-.13-2.25-.37-.74-.24-1.11-.85-1.11-1.78s.42-2.17,1.27-3.77l.27-.61c4.72-2.86,8.75-6.63,12.12-11.3,1.83-2.47,3.29-5.12,4.38-7.98.27-.77.4-1.43.4-2.02,0-1.27-.5-1.91-1.51-1.91-.74,0-1.67.48-2.79,1.43-2.18,1.96-4.08,4.19-5.73,6.74-3.26,4.69-5.97,9.34-8.09,13.95-2.55,1.54-5.25,2.81-8.14,3.77-.29.13-.48.32-.53.58-2.76,1.01-5.57,1.62-8.46,1.88-.5.05-1.09.08-1.72.08-.48,0-1.14-.03-1.99-.08-.82-.05-1.67-.34-2.49-.85-.8-.5-1.19-1.3-1.19-2.39v-.19c0-.5-.24-.77-.74-.77-.29,0-.53.13-.72.37-.56.66-1.27,1.14-2.15,1.43-.34.16-.5.42-.5.8,0,.53.24.8.72.8l.21-.05c.77-.29,1.38-.58,1.8-.9.32,1.19,1.19,2.1,2.65,2.71,1.33.45,2.63.69,3.93.69h.37c4.19-.08,8.25-.9,12.15-2.52.21-.13.37-.32.42-.53,1.99-.72,3.71-1.51,5.2-2.33-.48.96-.72,1.94-.72,2.94,0,1.22.4,2.1,1.17,2.65.82.61,1.62.93,2.41.98.8.05,1.38.08,1.75.08.74,0,1.43-.05,2.07-.16,3.87-.69,7.59-1.94,11.14-3.79.21-.11.34-.27.4-.48,1.3-.53,2.57-1.11,3.77-1.72,1.43,1.38,2.33,2.71,2.71,3.98-1.19.66-2.23,1.62-3.13,2.86-.56.8-.85,1.64-.85,2.57,0,.8.4,1.43,1.17,1.91.27.08.5.11.72.11.37,0,.72-.08,1.06-.27.98-.58,1.75-1.49,2.31-2.73.4-.93.58-1.86.58-2.79,0-.32-.03-.61-.08-.85,1.96-.95,5.44-1.59,10.37-1.86.32-.03.61-.03.88-.05-.32.5-.48,1.03-.48,1.56,0,.42.11.85.32,1.27.61.93,1.46,1.38,2.55,1.38s2.07-.29,3.02-.88c.98-.58,1.72-1.22,2.23-1.94.42-.58.64-1.03.64-1.35.66,0,1.49.16,2.41.45.93.29,1.86.42,2.79.42,1.17,0,2.31-.16,3.45-.45-.03.29-.03.56-.03.85,0,1.03.29,1.72.88,2.07.19.08.37.11.58.11.53,0,1.22-.37,2.07-1.11l1.62-1.14c1.75-1.27,2.92-1.99,3.53-2.15.29-.08.5-.11.64-.11.5,0,.9.27,1.19.8.64.95,1.62,1.43,2.92,1.43.9,0,2.1-.21,3.55-.61l1.03-.24c.72-.13,1.43-.27,2.1-.42l2.6-.53c.37-.16.56-.4.56-.72,0-.21-.08-.4-.24-.58ZM253.93,31.88c3.47-5.33,6.23-8.57,8.3-9.74.13-.05.27-.08.37-.08s.16.05.16.16c0,.21-.05.45-.13.72-.21.9-.5,1.75-.9,2.49-3.18,6.53-7.51,11.62-12.94,15.31,1.51-3,3.24-5.94,5.15-8.86ZM267.2,43.4c-.05-.08-.19-.21-.42-.4-.21-.21-.32-.5-.32-.88,0-.72.45-1.38,1.35-1.99.9-.64,1.67-.95,2.31-.95.69,0,1.01.29,1.01.88,0,1.01-1.22,2.17-3.71,3.5-.05-.05-.13-.11-.21-.16ZM268.63,54.67c-.37.34-.66.53-.88.53-.08,0-.16-.05-.27-.16-.11-.13-.16-.29-.16-.45,0-.29.11-.61.32-.98.61-1.06,1.41-1.91,2.39-2.52l.03.24c0,1.22-.48,2.33-1.43,3.34ZM287.17,49.87c-.5.77-1.14,1.17-1.91,1.22-.93-.11-1.41-.45-1.41-1.06,0-.08,0-.16.03-.21,0-.37.19-.8.56-1.25.21-.21.42-.4.61-.56.69-.11,1.17-.24,1.46-.4l-.03-.34c.34-.11.72-.16,1.09-.19h1.67c-.85.42-1.54,1.35-2.07,2.79ZM289.37,49.29c-.27.32-.48.45-.61.45-.16,0-.24-.08-.24-.21.08-.66.42-1.03,1.01-1.11.16,0,.24.05.24.16,0,.13-.13.37-.4.72ZM223.14,38.36c-.24-.08-.48-.13-.74-.13-.21,0-.45.11-.72.29-.24.19-.37.45-.37.8,0,.64.27,1.03.8,1.19.21.13.42.19.64.19.45,0,.8-.19,1.01-.58.08-.21.11-.42.11-.61,0-.56-.24-.93-.72-1.14ZM73.9,20.29l-5.73,27.61c-.69,3.37-2.52,4.67-4.24,4.67s-3-1.3-2.28-4.67l5.7-27.61h-16.39l-5.89,28.33c-2.12,10.27,4.01,15.41,16.5,15.41s20.74-5.15,22.87-15.41l5.86-28.33h-16.39ZM32.23,20.29l-2.97,14.4h-7l2.97-14.4H8.83L0,62.89h16.42l3.24-15.68h7l-3.24,15.68h16.39l8.81-42.6h-16.39Z"/>
  <text class="cls-3" transform="translate(282.53 14.38)"><tspan x="0" y="0">Printer</tspan></text>
</svg>